<!DOCTYPE svg PUBLIC "-//W3C//DTD SVG 1.1//EN" "http://www.w3.org/Graphics/SVG/1.1/DTD/svg11.dtd">
<!-- Uploaded to: SVG Repo, www.svgrepo.com, Transformed by: SVG Repo Mixer Tools -->
<svg fill="#ffffff" height="800px" width="800px" version="1.1" id="Layer_1" xmlns="http://www.w3.org/2000/svg" xmlns:xlink="http://www.w3.org/1999/xlink" viewBox="0 0 512 512" xml:space="preserve" stroke="#ffffff">
<g id="SVGRepo_bgCarrier" stroke-width="0"/>
<g id="SVGRepo_tracerCarrier" stroke-linecap="round" stroke-linejoin="round"/>
<g id="SVGRepo_iconCarrier"> <g> <g> <g> <path d="M256,281.6c-45.975,0-86.916,24.514-109.784,63.989c-2.362,4.078-0.971,9.299,3.107,11.661 c4.078,2.362,9.299,0.972,11.661-3.107c19.868-34.298,55.241-55.477,95.016-55.477s75.148,21.179,95.016,55.477 c2.362,4.078,7.583,5.469,11.661,3.107c4.078-2.362,5.469-7.583,3.107-11.661C342.916,306.114,301.975,281.6,256,281.6z"/> <path d="M256,0C114.617,0,0,114.617,0,256s114.617,256,256,256s256-114.617,256-256S397.383,0,256,0z M256,494.933 C124.043,494.933,17.067,387.957,17.067,256S124.043,17.067,256,17.067S494.933,124.043,494.933,256S387.957,494.933,256,494.933 z"/> <path d="M196.267,179.2c0-23.563-19.104-42.667-42.667-42.667c-23.563,0-42.667,19.104-42.667,42.667 c0,23.563,19.104,42.667,42.667,42.667C177.163,221.867,196.267,202.763,196.267,179.2z M128,179.2 c0-14.137,11.463-25.6,25.6-25.6c14.137,0,25.6,11.463,25.6,25.6s-11.463,25.6-25.6,25.6C139.463,204.8,128,193.337,128,179.2z"/> <path d="M358.578,136.533c-23.563,0-42.667,19.104-42.667,42.667c0,23.563,19.104,42.667,42.667,42.667 s42.667-19.104,42.667-42.667C401.244,155.637,382.141,136.533,358.578,136.533z M358.578,204.8c-14.137,0-25.6-11.463-25.6-25.6 s11.463-25.6,25.6-25.6c14.137,0,25.6,11.463,25.6,25.6S372.715,204.8,358.578,204.8z"/> <path d="M404.883,120.368l-34.133-17.067c-4.215-2.108-9.341-0.399-11.449,3.816c-2.108,4.215-0.399,9.341,3.816,11.449 l34.133,17.067c4.215,2.108,9.341,0.399,11.449-3.816C410.807,127.601,409.098,122.475,404.883,120.368z"/> <path d="M148.883,118.566c4.215-2.108,5.924-7.233,3.816-11.449c-2.108-4.215-7.233-5.924-11.449-3.816l-34.133,17.067 c-4.215,2.108-5.924,7.233-3.816,11.449c2.108,4.215,7.233,5.924,11.449,3.816L148.883,118.566z"/> </g> </g> </g> </g>
</svg>